<svg width="97" height="21" viewBox="0 0 97 21" fill="none" xmlns="http://www.w3.org/2000/svg">
<path d="M47.715 5.97949C46.4965 5.97949 45.3057 6.44134 44.4333 7.32304C43.561 8.20475 43.1179 9.42234 43.1179 10.6399C43.1179 11.8715 43.5472 13.0751 44.4056 13.9708C45.2641 14.8665 46.4549 15.3284 47.6734 15.3284C48.8919 15.3284 50.0827 14.8665 50.9551 13.9848C51.8274 13.1031 52.2705 11.8855 52.2705 10.6679C52.2705 9.43634 51.8413 8.23274 50.9828 7.33704C50.1104 6.45534 48.9335 5.97949 47.715 5.97949ZM50.152 11.1998C50.1243 11.3677 50.0689 11.5356 50.0135 11.7036C49.9581 11.8575 49.875 12.0115 49.792 12.1514C49.7089 12.2914 49.612 12.4173 49.5012 12.5293C49.3904 12.6413 49.2658 12.7392 49.1412 12.8372C49.0027 12.9212 48.8642 13.0052 48.7119 13.0611C48.5596 13.1311 48.3935 13.1731 48.2273 13.2011C48.0611 13.2291 47.8811 13.2431 47.715 13.2431C47.535 13.2431 47.3688 13.2291 47.2027 13.1871C47.0365 13.1591 46.8703 13.1031 46.718 13.0471C46.5657 12.9912 46.4273 12.9072 46.2888 12.8232C46.1642 12.7392 46.0395 12.6273 45.9288 12.5153C45.818 12.4034 45.7211 12.2774 45.638 12.1374C45.5549 11.9975 45.4718 11.8435 45.4164 11.6896C45.3472 11.5216 45.3057 11.3537 45.278 11.1858C45.2503 11.0038 45.2364 10.8219 45.2364 10.6399C45.2364 10.458 45.2503 10.2761 45.2918 10.0941C45.3195 9.92617 45.3749 9.75823 45.4303 9.59029C45.4857 9.43634 45.5688 9.28239 45.6518 9.14244C45.7349 9.00248 45.8318 8.87652 45.9426 8.76456C46.0534 8.6526 46.178 8.55464 46.3026 8.45667C46.4411 8.3727 46.5796 8.28872 46.7319 8.23274C46.8842 8.16276 47.0503 8.12078 47.2165 8.09279C47.3827 8.06479 47.5627 8.0508 47.7288 8.0508C47.9088 8.0508 48.075 8.0648 48.2411 8.10679C48.4073 8.13478 48.5735 8.19076 48.7258 8.24674C48.8781 8.30272 49.0166 8.38669 49.155 8.47066C49.2796 8.55463 49.4043 8.6666 49.515 8.77856C49.6258 8.89052 49.7227 9.01648 49.8058 9.15644C49.8889 9.29639 49.972 9.45033 50.0274 9.60428C50.0966 9.77222 50.1381 9.94017 50.1658 10.1081C50.1935 10.2901 50.2074 10.472 50.2074 10.6539C50.1935 10.8499 50.1797 11.0178 50.152 11.1998Z" fill="#1F1F1F"/>
<path d="M30.5454 2.38271C29.3408 1.40303 27.9423 0.71726 26.433 0.353382C25.5745 0.143452 24.7022 0.0454853 23.816 0.0174946C23.1652 -0.0104961 22.5006 0.00349841 21.8498 0.00349841H12.5311C11.8803 0.00349841 11.2157 0.00349926 10.5649 0.0174946C9.67873 0.0454853 8.82024 0.143452 7.94791 0.353382C6.43864 0.71726 5.05399 1.40303 3.84934 2.38271C1.41235 4.35605 0 7.33705 0 10.5C0 13.6629 1.41235 16.644 3.84934 18.6173C5.05399 19.597 6.45248 20.2827 7.96175 20.6466C8.82024 20.8565 9.69257 20.9545 10.5788 20.9825C11.2295 21.0105 11.8942 20.9965 12.545 20.9965H21.8637C22.5145 20.9965 23.1791 20.9965 23.8299 20.9825C24.7161 20.9545 25.5745 20.8565 26.4469 20.6466C27.9561 20.2827 29.3408 19.597 30.5454 18.6173C32.9824 16.644 34.3948 13.6629 34.3948 10.5C34.3948 7.33705 32.9824 4.35605 30.5454 2.38271ZM25.9899 13.3271C25.533 13.649 25.0207 13.8449 24.4807 13.9289C23.9407 14.0128 23.3868 13.9988 22.8468 13.9988H11.5619C11.008 13.9988 10.468 14.0128 9.92796 13.9289C9.3741 13.8449 8.87563 13.649 8.4187 13.3271C7.50483 12.6833 6.95096 11.6336 6.95096 10.5C6.95096 9.36638 7.50483 8.31673 8.4187 7.67294C8.87563 7.35105 9.38795 7.15511 9.92796 7.07114C10.468 6.98717 11.0218 7.00117 11.5619 7.00117H22.8468C23.4006 7.00117 23.9407 6.98717 24.4807 7.07114C25.0345 7.15511 25.533 7.35105 25.9899 7.67294C26.9038 8.31673 27.4577 9.36638 27.4577 10.5C27.4715 11.6336 26.9177 12.6833 25.9899 13.3271Z" fill="#1F1F1F"/>
<path d="M85.0454 10.388C85.0454 10.64 85.0454 10.8919 85.0316 11.1298C85.0177 11.2837 85.0039 11.4517 84.9762 11.6056C84.9208 11.8995 84.8239 12.1794 84.6715 12.4314C84.2838 13.0472 83.5915 13.3551 82.8992 13.369C82.193 13.383 81.5145 13.0891 81.1407 12.4454C80.9884 12.1794 80.8914 11.8995 80.8361 11.6056C80.7668 11.2138 80.7391 10.7939 80.7391 10.402C80.7391 10.1361 80.7253 9.88421 80.7253 9.6183V8.27475V6.14746H78.6206V9.77225C78.6206 10.1221 78.6206 10.472 78.6344 10.8219C78.6483 11.0738 78.6483 11.3397 78.676 11.5916C78.7314 12.1934 78.8422 12.7812 79.1052 13.3411C79.6591 14.4747 80.7391 15.1325 81.9438 15.2724C82.5392 15.3424 83.1484 15.2864 83.7161 15.1185C84.27 14.9505 84.8516 14.6706 85.2531 14.2368C85.267 14.5167 85.2946 14.8246 85.3085 15.1045H87.1501V6.14746H85.0454V10.388Z" fill="#1F1F1F"/>
<path d="M96.3442 11.6057C96.0396 10.738 95.2919 10.2062 94.5026 9.89831C94.0595 9.71637 93.6026 9.6184 93.1457 9.50644C92.938 9.46446 92.7441 9.42247 92.5364 9.36649C92.3703 9.3245 92.1902 9.26852 92.0241 9.19854C91.8441 9.11457 91.6641 9.0166 91.5395 8.86265C91.4287 8.73669 91.3733 8.56875 91.401 8.40081C91.4287 8.20487 91.5395 8.03693 91.6918 7.91097C91.8025 7.827 91.9133 7.75702 92.0379 7.71503C92.2041 7.64505 92.3703 7.61707 92.5364 7.58908C92.8826 7.54709 93.2287 7.57508 93.5611 7.64505C94.0734 7.75702 94.5441 7.95295 94.9872 8.23286C95.3334 7.74302 95.6934 7.26719 96.0396 6.77735C95.3334 6.25952 94.5441 5.93763 93.6857 5.79767C93.201 5.7277 92.7164 5.7137 92.2456 5.78368C91.8718 5.83966 91.5118 5.92363 91.1656 6.07758C90.7087 6.27351 90.2933 6.55342 89.9748 6.95929C89.7394 7.2392 89.5733 7.57508 89.4763 7.92496C89.3517 8.35882 89.3517 8.82067 89.4902 9.26852C89.6148 9.67438 89.8502 10.0103 90.1548 10.2902C90.8056 10.864 91.7333 11.0739 92.5226 11.2419C92.7995 11.2978 93.0764 11.3538 93.3534 11.4378C93.5749 11.5078 93.8103 11.5777 94.0041 11.7037C94.1564 11.8017 94.3088 11.9276 94.4057 12.0816C94.4888 12.2215 94.5303 12.3755 94.5164 12.5294C94.5026 12.6834 94.4472 12.8093 94.3503 12.9353C94.2395 13.0753 94.1011 13.1732 93.9487 13.2572C93.741 13.3552 93.5195 13.4111 93.298 13.4391C92.9933 13.4811 92.661 13.4671 92.3564 13.4251C92.0102 13.3832 91.6918 13.2992 91.3595 13.1872C90.861 13.0053 90.4317 12.7394 90.0163 12.4175C89.6425 12.9213 89.2686 13.4251 88.8948 13.929C89.5594 14.4888 90.321 14.8946 91.1518 15.1466C91.6087 15.2725 92.0795 15.3565 92.5641 15.3705C92.9518 15.3845 93.3257 15.3565 93.7134 15.3005C94.198 15.2165 94.6826 15.0626 95.1119 14.7967C95.4303 14.6007 95.6934 14.3628 95.9288 14.0689C96.2196 13.691 96.3996 13.2432 96.4688 12.7674C96.5104 12.3755 96.4827 11.9836 96.3442 11.6057Z" fill="#1F1F1F"/>
<path d="M59.083 13.1591C58.5984 13.2711 58.0722 13.2571 57.5876 13.1032C57.103 12.9492 56.6876 12.6413 56.3829 12.2214C56.0922 11.8016 55.9398 11.2978 55.9122 10.7939C55.8845 10.2901 55.9814 9.75827 56.2168 9.31041C56.466 8.83457 56.826 8.51268 57.3107 8.30275C57.5184 8.21877 57.7261 8.1488 57.9476 8.12081C58.2384 8.07882 58.5015 8.06483 58.7922 8.10682C59.3046 8.1628 59.7754 8.35873 60.2046 8.63864C60.6338 8.09282 61.0492 7.547 61.4785 7.01517C60.7446 6.42737 59.9138 6.09148 58.9999 5.99351C58.0999 5.89554 57.1722 6.0355 56.3414 6.42737C55.5106 6.83323 54.846 7.46303 54.4029 8.28875C53.9736 9.10049 53.7936 10.0382 53.8352 10.9479C53.8767 11.8576 54.1536 12.7673 54.6798 13.523C55.206 14.2928 55.9537 14.8386 56.826 15.1325C57.6845 15.4264 58.6261 15.4824 59.5123 15.2864C60.3985 15.0905 61.2293 14.6566 61.8662 13.9849C61.3816 13.481 60.9108 12.9772 60.4261 12.4734C60.0246 12.8093 59.5677 13.0472 59.083 13.1591Z" fill="#1F1F1F"/>
<path d="M76.3498 1.40308H74.1343V15.1185H76.3498V1.40308Z" fill="#1F1F1F"/>
<path d="M69.5925 10.388C69.5925 10.64 69.5925 10.8919 69.5787 11.1298C69.5648 11.2837 69.551 11.4517 69.5233 11.6056C69.4679 11.8995 69.371 12.1794 69.2187 12.4314C68.8309 13.0472 68.1386 13.3551 67.4463 13.369C66.7401 13.383 66.0616 13.0891 65.6878 12.4454C65.5355 12.1794 65.4386 11.8995 65.3832 11.6056C65.3139 11.2138 65.2862 10.7939 65.2862 10.402C65.2862 10.1361 65.2724 9.88421 65.2724 9.6183V8.27475V6.14746H63.1677V9.77225C63.1677 10.1221 63.1677 10.472 63.1816 10.8219C63.1954 11.0738 63.1954 11.3397 63.2231 11.5916C63.2785 12.1934 63.3893 12.7812 63.6524 13.3411C64.2062 14.4747 65.2862 15.1325 66.4909 15.2724C67.0863 15.3424 67.6955 15.2864 68.2632 15.1185C68.8171 14.9505 69.3987 14.6706 69.8002 14.2368C69.814 14.5167 69.8417 14.8246 69.8556 15.1045H71.6418V6.14746H69.5925V10.388Z" fill="#1F1F1F"/>
</svg>
