<svg width="97" height="21" fill="none" xmlns="http://www.w3.org/2000/svg"><path d="M47.715 5.98c-1.219 0-2.41.461-3.282 1.343-.872.882-1.315 2.1-1.315 3.317 0 1.231.43 2.435 1.288 3.33.858.896 2.049 1.358 3.267 1.358 1.219 0 2.41-.461 3.282-1.343.872-.882 1.316-2.1 1.316-3.317 0-1.232-.43-2.435-1.288-3.331a4.585 4.585 0 00-3.268-1.358zm2.437 5.22a3.38 3.38 0 01-.139.504 2.694 2.694 0 01-.221.447 1.95 1.95 0 01-.29.378c-.112.112-.236.21-.36.308a2.503 2.503 0 01-.43.224c-.152.07-.319.112-.485.14a3.162 3.162 0 01-.512.042c-.18 0-.346-.014-.512-.056a2.764 2.764 0 01-.485-.14c-.152-.056-.29-.14-.43-.224a2.473 2.473 0 01-.36-.308 1.946 1.946 0 01-.29-.378 2.687 2.687 0 01-.36-.951 3.623 3.623 0 01-.042-.546c0-.182.014-.364.056-.546.027-.168.083-.336.138-.504.056-.154.139-.308.222-.448.083-.14.18-.265.29-.377.111-.112.236-.21.36-.308.14-.084.278-.168.43-.224.152-.07.318-.112.485-.14.166-.028.346-.042.512-.042.18 0 .346.014.512.056a2.506 2.506 0 01.914.364c.125.084.25.196.36.308.11.112.208.237.29.377a2.687 2.687 0 01.36.952c.029.182.042.364.042.546a6.628 6.628 0 01-.055.546zM30.545 2.383a10.332 10.332 0 00-4.112-2.03c-.858-.21-1.73-.308-2.617-.336-.65-.027-1.315-.014-1.966-.014h-9.32c-.65 0-1.315 0-1.966.014-.886.028-1.745.126-2.617.336a10.277 10.277 0 00-4.099 2.03A10.43 10.43 0 000 10.5a10.43 10.43 0 003.85 8.117 10.332 10.332 0 004.112 2.03c.858.21 1.73.308 2.617.336.65.027 1.315.014 1.966.014h9.319c.65 0 1.315 0 1.966-.014a12.772 12.772 0 002.617-.336 10.277 10.277 0 004.098-2.03 10.43 10.43 0 003.85-8.117 10.43 10.43 0 00-3.85-8.117zM25.99 13.327c-.457.322-.97.518-1.51.602-.54.084-1.093.07-1.633.07H11.562c-.554 0-1.094.014-1.634-.07A3.474 3.474 0 016.951 10.5c0-1.134.554-2.183 1.468-2.827a3.541 3.541 0 011.509-.602c.54-.084 1.094-.07 1.634-.07h11.285c.554 0 1.094-.014 1.634.07a3.474 3.474 0 012.977 3.429 3.386 3.386 0 01-1.468 2.827zm59.055-2.939c0 .252 0 .504-.013.742-.014.154-.028.322-.056.476a2.468 2.468 0 01-.305.825c-.387.616-1.08.924-1.772.938-.706.014-1.385-.28-1.758-.924a2.66 2.66 0 01-.305-.84 7.048 7.048 0 01-.097-1.203c0-.266-.014-.518-.014-.784V6.147h-2.104v3.625c0 .35 0 .7.013 1.05.014.252.014.518.042.77.055.601.166 1.19.43 1.75.553 1.133 1.633 1.79 2.838 1.93a4.45 4.45 0 001.772-.154c.554-.168 1.136-.447 1.537-.881.014.28.042.588.055.867h1.842V6.147h-2.105v4.241zm11.299 1.218c-.304-.868-1.052-1.4-1.841-1.708-.444-.182-.9-.28-1.357-.392a9.55 9.55 0 01-.61-.14 3.647 3.647 0 01-.512-.167c-.18-.084-.36-.182-.484-.336a.563.563 0 01-.14-.463.784.784 0 01.29-.49c.111-.084.222-.154.347-.196.166-.07.332-.098.498-.126a3.14 3.14 0 011.025.056 4.4 4.4 0 011.426.588c.346-.49.706-.966 1.053-1.456a5.396 5.396 0 00-2.354-.98 4.971 4.971 0 00-1.44-.013c-.374.056-.734.14-1.08.294-.457.196-.873.475-1.191.881-.236.28-.402.616-.499.966-.124.434-.124.896.014 1.344a2.3 2.3 0 00.665 1.021c.65.574 1.578.784 2.368.952.276.056.553.112.83.196.222.07.457.14.651.266.152.098.305.224.402.378.083.14.124.293.11.447a.749.749 0 01-.166.406c-.11.14-.249.238-.401.322a2.16 2.16 0 01-.651.182 3.535 3.535 0 01-.942-.014 4.916 4.916 0 01-.996-.238c-.499-.182-.928-.448-1.344-.77l-1.121 1.512c.664.56 1.426.966 2.257 1.218a5.894 5.894 0 002.562.153c.484-.084.969-.237 1.398-.503a3.15 3.15 0 00.817-.728c.29-.378.47-.826.54-1.302a2.554 2.554 0 00-.125-1.161zM59.083 13.16a2.859 2.859 0 01-1.495-.057 2.376 2.376 0 01-1.205-.882 2.778 2.778 0 01-.47-1.427 2.893 2.893 0 01.304-1.484 2.144 2.144 0 011.094-1.007c.207-.084.415-.154.637-.182.29-.042.553-.056.844-.014.513.056.983.252 1.413.532.429-.546.844-1.092 1.273-1.624A4.692 4.692 0 0059 5.994a4.983 4.983 0 00-2.659.433 4.32 4.32 0 00-1.938 1.862c-.43.811-.61 1.75-.568 2.659.042.91.319 1.82.845 2.575a4.187 4.187 0 002.146 1.61c.858.293 1.8.35 2.686.153a4.59 4.59 0 002.354-1.301c-.484-.504-.955-1.008-1.44-1.512a3.238 3.238 0 01-1.343.686zM76.35 1.403h-2.216v13.715h2.216V1.403zm-6.757 8.985c0 .252 0 .504-.014.742-.014.154-.028.322-.056.476a2.47 2.47 0 01-.304.825c-.388.616-1.08.924-1.773.938-.706.014-1.384-.28-1.758-.924a2.663 2.663 0 01-.305-.84 7.048 7.048 0 01-.097-1.203c0-.266-.014-.518-.014-.784V6.147h-2.104v3.625c0 .35 0 .7.014 1.05.013.252.013.518.041.77.056.601.166 1.19.43 1.75.553 1.133 1.633 1.79 2.838 1.93a4.45 4.45 0 001.772-.154c.554-.168 1.136-.447 1.537-.881.014.28.042.588.056.867h1.786V6.147h-2.05v4.241z" fill="#1F1F1F"/></svg>